<?xml version="1.0" encoding="UTF-8"?>
<svg version="1.1" xmlns="http://www.w3.org/2000/svg" width="512" height="512">
<path d="M0 0 C-0.33 1.32 -0.66 2.64 -1 4 C-1.87140625 4.09796875 -2.7428125 4.1959375 -3.640625 4.296875 C-20.1238563 6.36619841 -35.42962262 11.64236822 -46.37890625 24.875 C-56.70435339 39.65202632 -61.14261513 54.92306602 -58.57421875 72.99609375 C-55.02701859 87.64189562 -46.87641894 101.32622517 -33.96655273 109.40283203 C-19.56641035 117.77771928 -4.55225356 120.28456149 11.8203125 117.3046875 C26.62939812 113.13853812 38.66969293 103.85302724 46.52734375 90.6640625 C48.46734029 87.15457273 50.28912593 83.62705302 52 80 C53.32 80.33 54.64 80.66 56 81 C53.1193895 99.45464288 47.24536655 117.30212465 31.53515625 128.8046875 C13.58519601 140.80566522 -4.02286332 142.55562913 -25 142 C-24.90642301 146.50272703 -24.80032075 151.004919 -24.68261719 155.50708008 C-24.64434202 157.03857339 -24.60948651 158.57015615 -24.578125 160.10180664 C-24.53244193 162.3038733 -24.47445463 164.50532496 -24.4140625 166.70703125 C-24.40251129 167.39150833 -24.39096008 168.07598541 -24.37905884 168.78120422 C-24.26726256 172.38460837 -24.05605447 173.9159183 -22 177 C-21.66761917 178.94883122 -21.40608372 180.91014853 -21.1875 182.875 C-19.52066672 194.4017932 -15.2908352 203.95641856 -8 213 C-7.33097656 213.83273438 -6.66195312 214.66546875 -5.97265625 215.5234375 C4.09642949 227.35871007 16.22057078 233.88032702 29.8359375 240.82421875 C45.52924716 248.84994146 60.82196817 257.50003173 75 268 C75.59570801 268.44021484 76.19141602 268.88042969 76.80517578 269.33398438 C89.89835983 279.10661426 102.21232348 289.84550994 112 303 C112.74765625 303.99386719 113.4953125 304.98773438 114.265625 306.01171875 C131.79626774 330.2505156 139.26175401 358.49567544 134.9375 388.25 C131.73757013 407.70941114 124.11376546 425.76838318 113 442 C113.99181274 441.99214478 113.99181274 441.99214478 115.00366211 441.98413086 C117.98159851 441.96342344 120.95951982 441.95035988 123.9375 441.9375 C124.97841797 441.92912109 126.01933594 441.92074219 127.09179688 441.91210938 C128.57583008 441.90727539 128.57583008 441.90727539 130.08984375 441.90234375 C131.46450806 441.89448853 131.46450806 441.89448853 132.86694336 441.88647461 C135 442 135 442 136 443 C136 454.88 136 466.76 136 479 C26.44 479 -83.12 479 -196 479 C-196 443 -196 443 -195 442 C-193.36527118 441.91299658 -191.72685945 441.89298937 -190.08984375 441.90234375 C-189.10048828 441.90556641 -188.11113281 441.90878906 -187.09179688 441.91210938 C-185.53041992 441.92467773 -185.53041992 441.92467773 -183.9375 441.9375 C-182.37032227 441.94426758 -182.37032227 441.94426758 -180.77148438 441.95117188 C-178.1809334 441.96300087 -175.59049441 441.97948311 -173 442 C-173.56847656 441.1028125 -174.13695312 440.205625 -174.72265625 439.28125 C-192.19991316 411.24006365 -200.93027269 379.18317326 -193.59082031 346.33105469 C-183.67761125 307.21893892 -152.73553699 277.31420186 -119.1328125 257.00390625 C-111.56769688 252.56240855 -103.85845535 248.41566097 -96.05078125 244.41796875 C-95.15810295 243.95989586 -95.15810295 243.95989586 -94.24739075 243.49256897 C-91.33917897 242.00249319 -88.42583081 240.52647147 -85.50024414 239.07055664 C-66.25594251 229.33231993 -48.61784291 214.7998156 -41 194 C-40.10788934 190.26540496 -39.468971 186.50011799 -38.9362793 182.69873047 C-38.43595875 179.12997001 -38.03568053 177.0535208 -36 174 C-35.7597883 171.39206609 -35.62736305 168.88112855 -35.5859375 166.26953125 C-35.56657135 165.51911057 -35.5472052 164.76868988 -35.5272522 163.99552917 C-35.46752541 161.60130133 -35.42109935 159.20702523 -35.375 156.8125 C-35.3368138 155.1881302 -35.29776169 153.56378052 -35.2578125 151.93945312 C-35.16182975 147.95979895 -35.07777364 143.98004999 -35 140 C-35.6587915 139.8138916 -36.31758301 139.6277832 -36.99633789 139.43603516 C-54.47265081 134.37141217 -68.63684713 123.39342562 -77.97265625 107.6796875 C-87.30986374 89.95683506 -90.57210934 69.98405524 -85.4375 50.3125 C-84.68842802 48.18492749 -83.8752964 46.07882895 -83 44 C-82.525625 42.84757812 -82.05125 41.69515625 -81.5625 40.5078125 C-72.59868324 20.8132728 -57.06395687 8.92379257 -37.28515625 0.8984375 C-26.65415188 -2.44228928 -10.78874871 -3.14094843 0 0 Z " fill="#00A650" transform="translate(286,17)"/>
<path d="M0 0 C-0.33 1.32 -0.66 2.64 -1 4 C-1.87140625 4.09796875 -2.7428125 4.1959375 -3.640625 4.296875 C-20.1238563 6.36619841 -35.42962262 11.64236822 -46.37890625 24.875 C-56.70435339 39.65202632 -61.14261513 54.92306602 -58.57421875 72.99609375 C-55.02701859 87.64189562 -46.87641894 101.32622517 -33.96655273 109.40283203 C-19.56641035 117.77771928 -4.55225356 120.28456149 11.8203125 117.3046875 C26.62939812 113.13853812 38.66969293 103.85302724 46.52734375 90.6640625 C48.46734029 87.15457273 50.28912593 83.62705302 52 80 C53.32 80.33 54.64 80.66 56 81 C53.1193895 99.45464288 47.24536655 117.30212465 31.53515625 128.8046875 C13.58519601 140.80566522 -4.02286332 142.55562913 -25 142 C-24.90642301 146.50272703 -24.80032075 151.004919 -24.68261719 155.50708008 C-24.64434202 157.03857339 -24.60948651 158.57015615 -24.578125 160.10180664 C-24.53244193 162.3038733 -24.47445463 164.50532496 -24.4140625 166.70703125 C-24.40251129 167.39150833 -24.39096008 168.07598541 -24.37905884 168.78120422 C-24.26726256 172.38460837 -24.05605447 173.9159183 -22 177 C-21.66761917 178.94883122 -21.40608372 180.91014853 -21.1875 182.875 C-19.50667842 194.49852768 -15.16711949 203.77785336 -8 213 C-6.99890325 214.33251006 -5.99854697 215.66557813 -5 217 C-11.13600703 231.18168971 -31.9355884 239.10408486 -44.93457031 245.46533203 C-54.95945619 250.39557786 -64.6987516 255.79916774 -74 262 C-75.9401081 261.95067522 -77.88021516 261.90130859 -79.8203125 261.8515625 C-83.60788604 262.10949762 -86.66850855 263.78457995 -90 265.5 C-90.67933594 265.83386719 -91.35867187 266.16773438 -92.05859375 266.51171875 C-93.71271274 267.32712952 -95.35741507 268.16159728 -97 269 C-97 269.9075 -97 270.815 -97 271.75 C-97 279 -97 279 -98.3125 280.484375 C-99.875 281.65625 -101.4375 282.828125 -103 284 C-103.5878125 282.5459375 -103.5878125 282.5459375 -104.1875 281.0625 C-105.65531259 277.85214698 -105.65531259 277.85214698 -108.32421875 277.12890625 C-111.76419047 276.96318498 -112.8944922 277.82027005 -115.625 279.875 C-116.49511719 280.52597656 -117.36523438 281.17695313 -118.26171875 281.84765625 C-119.61716797 282.91306641 -119.61716797 282.91306641 -121 284 C-121.89332031 284.69996094 -122.78664063 285.39992188 -123.70703125 286.12109375 C-134.25153902 294.5838532 -143.69989164 303.30025635 -152 314 C-152.73863281 314.86367188 -153.47726563 315.72734375 -154.23828125 316.6171875 C-156.4370227 319.591095 -156.33619447 321.38590948 -156 325 C-153.760165 325.95020416 -153.760165 325.95020416 -151 326 C-147.39058323 322.72523114 -144.20009764 319.05440689 -140.9375 315.4375 C-138.96688534 313.28368917 -136.98627943 311.13936829 -135 309 C-134.52643066 308.48953125 -134.05286133 307.9790625 -133.56494141 307.453125 C-125.79598784 299.16339249 -117.32478944 292.47130196 -108 286 C-107.34 286.33 -106.68 286.66 -106 287 C-106.928125 287.86625 -107.85625 288.7325 -108.8125 289.625 C-126.02961783 306.91182276 -138.00218793 328.19321776 -143 352 C-143.26478149 353.16764893 -143.26478149 353.16764893 -143.53491211 354.35888672 C-147.68276267 377.91345224 -142.32646191 404.58221283 -131.21671295 425.62263203 C-130 428 -130 428 -128.67458344 431.42756176 C-126.81203396 435.63149463 -124.74813667 439.22736974 -121 442 C-113.29394661 444.6881233 -104.52270943 443.75428117 -96.49414062 443.57348633 C-93.97230637 443.56789743 -91.45045193 443.56849785 -88.92861938 443.57481384 C-83.50745634 443.57461309 -78.08933197 443.53172639 -72.6688385 443.44965553 C-64.83145238 443.33115407 -56.9951977 443.29148503 -49.15701479 443.27087828 C-36.43767541 443.23540733 -23.71959894 443.13820859 -11.00097656 443.0012207 C1.347244 442.86836864 13.69519238 442.76222042 26.04394531 442.69360352 C26.80568627 442.68935998 27.56742722 442.68511645 28.35225123 442.68074433 C32.93142465 442.6554809 37.51060328 442.63129568 42.0897845 442.60749425 C48.74952006 442.57277565 55.40924754 442.53662726 62.06896973 442.49943542 C62.78509172 442.49546598 63.50121372 442.49149654 64.23903638 442.48740681 C74.17152924 442.43172981 84.10370321 442.35653677 94.03592503 442.26461478 C96.0561238 442.24608071 98.07632706 442.2281785 100.09653378 442.21053255 C106.30758577 442.15622293 112.51853281 442.09804833 118.72946167 442.03109741 C120.8934914 442.01179467 123.05752327 441.99273128 125.22155762 441.97395325 C126.20858846 441.96149073 127.19561931 441.94902821 128.21256018 441.93618804 C129.1007502 441.92954531 129.98894023 441.92290257 130.9040451 441.91605854 C131.67645397 441.9080898 132.44886283 441.90012107 133.24467802 441.89191085 C135 442 135 442 136 443 C136 454.88 136 466.76 136 479 C26.44 479 -83.12 479 -196 479 C-196 443 -196 443 -195 442 C-193.36527118 441.91299658 -191.72685945 441.89298937 -190.08984375 441.90234375 C-189.10048828 441.90556641 -188.11113281 441.90878906 -187.09179688 441.91210938 C-185.53041992 441.92467773 -185.53041992 441.92467773 -183.9375 441.9375 C-182.37032227 441.94426758 -182.37032227 441.94426758 -180.77148438 441.95117188 C-178.1809334 441.96300087 -175.59049441 441.97948311 -173 442 C-173.56847656 441.1028125 -174.13695312 440.205625 -174.72265625 439.28125 C-192.19991316 411.24006365 -200.93027269 379.18317326 -193.59082031 346.33105469 C-183.67761125 307.21893892 -152.73553699 277.31420186 -119.1328125 257.00390625 C-111.56769688 252.56240855 -103.85845535 248.41566097 -96.05078125 244.41796875 C-95.15810295 243.95989586 -95.15810295 243.95989586 -94.24739075 243.49256897 C-91.33917897 242.00249319 -88.42583081 240.52647147 -85.50024414 239.07055664 C-66.25594251 229.33231993 -48.61784291 214.7998156 -41 194 C-40.10788934 190.26540496 -39.468971 186.50011799 -38.9362793 182.69873047 C-38.43595875 179.12997001 -38.03568053 177.0535208 -36 174 C-35.7597883 171.39206609 -35.62736305 168.88112855 -35.5859375 166.26953125 C-35.56657135 165.51911057 -35.5472052 164.76868988 -35.5272522 163.99552917 C-35.46752541 161.60130133 -35.42109935 159.20702523 -35.375 156.8125 C-35.3368138 155.1881302 -35.29776169 153.56378052 -35.2578125 151.93945312 C-35.16182975 147.95979895 -35.07777364 143.98004999 -35 140 C-35.6587915 139.8138916 -36.31758301 139.6277832 -36.99633789 139.43603516 C-54.47265081 134.37141217 -68.63684713 123.39342562 -77.97265625 107.6796875 C-87.30986374 89.95683506 -90.57210934 69.98405524 -85.4375 50.3125 C-84.68842802 48.18492749 -83.8752964 46.07882895 -83 44 C-82.525625 42.84757812 -82.05125 41.69515625 -81.5625 40.5078125 C-72.59868324 20.8132728 -57.06395687 8.92379257 -37.28515625 0.8984375 C-26.65415188 -2.44228928 -10.78874871 -3.14094843 0 0 Z " fill="#0F8745" transform="translate(286,17)"/>
<path d="M0 0 C1.15089489 -0.00260775 2.30178978 -0.00521549 3.48756027 -0.00790226 C5.40818724 -0.00455618 5.40818724 -0.00455618 7.36761475 -0.0011425 C8.72894965 -0.00229337 10.09028425 -0.00388066 11.45161819 -0.00586975 C15.20995594 -0.01006779 18.9682685 -0.00797025 22.72660637 -0.00488353 C26.7730006 -0.00263157 30.81939034 -0.00610802 34.86578369 -0.00886345 C42.79957692 -0.01332234 50.73336071 -0.01234415 58.66715431 -0.00945081 C65.11210839 -0.00719724 71.55705981 -0.00688405 78.00201416 -0.00797462 C78.91745916 -0.00812786 79.83290415 -0.00828109 80.77608991 -0.00843897 C82.63549264 -0.00875868 84.49489538 -0.00908289 86.35429811 -0.00941156 C103.81148017 -0.0122667 121.26865699 -0.0089788 138.72583818 -0.00361119 C153.72199289 0.00085688 168.71813986 0.00008095 183.71429443 -0.00452995 C201.10677086 -0.00987512 218.49924269 -0.011992 235.89171982 -0.00891769 C237.74448395 -0.00859912 239.59724808 -0.00828475 241.45001221 -0.00797462 C242.3617329 -0.00782035 243.27345358 -0.00766607 244.21280217 -0.00750712 C250.65393385 -0.00664179 257.09506262 -0.00810518 263.53619385 -0.01045418 C271.38015166 -0.01325174 279.22409945 -0.01251485 287.06805611 -0.00717343 C291.07416968 -0.00453582 295.08026653 -0.00353236 299.08638 -0.00682259 C302.7477743 -0.00978433 306.40913623 -0.0081948 310.07052755 -0.00284503 C312.03517376 -0.00118413 313.99982217 -0.0044795 315.96446609 -0.00790226 C317.69080843 -0.00399064 317.69080843 -0.00399064 319.45202637 0 C320.45356625 0.00016235 321.45510612 0.0003247 322.4869957 0.00049198 C324.72601318 0.12584114 324.72601318 0.12584114 325.72601318 1.12584114 C325.72601318 13.00584114 325.72601318 24.88584114 325.72601318 37.12584114 C216.16601318 37.12584114 106.60601318 37.12584114 -6.27398682 37.12584114 C-6.27398682 0.00101703 -6.27398682 0.00101703 0 0 Z " fill="#F8D437" transform="translate(96.27398681640625,458.87415885925293)"/>
<path d="M0 0 C-0.33 1.32 -0.66 2.64 -1 4 C-1.87140625 4.09796875 -2.7428125 4.1959375 -3.640625 4.296875 C-20.1238563 6.36619841 -35.42962262 11.64236822 -46.37890625 24.875 C-56.70435339 39.65202632 -61.14261513 54.92306602 -58.57421875 72.99609375 C-55.02701859 87.64189562 -46.87641894 101.32622517 -33.96655273 109.40283203 C-19.56641035 117.77771928 -4.55225356 120.28456149 11.8203125 117.3046875 C26.62939812 113.13853812 38.66969293 103.85302724 46.52734375 90.6640625 C48.46734029 87.15457273 50.28912593 83.62705302 52 80 C53.32 80.33 54.64 80.66 56 81 C53.1193895 99.45464288 47.24536655 117.30212465 31.53515625 128.8046875 C13.43075177 140.9089235 -3.83578954 142.39192982 -25 142 C-25 152.56 -25 163.12 -25 174 C-27.31 173.67 -29.62 173.34 -32 173 C-32.99 173.33 -33.98 173.66 -35 174 C-35 162.78 -35 151.56 -35 140 C-38.3 139.01 -41.6 138.02 -45 137 C-64.53675525 128.59435563 -76.2623288 112.94715078 -84.3203125 93.875 C-89.66914536 78.61399435 -89.27035923 58.89210316 -83 44 C-82.525625 42.84757812 -82.05125 41.69515625 -81.5625 40.5078125 C-72.59868324 20.8132728 -57.06395687 8.92379257 -37.28515625 0.8984375 C-26.65415188 -2.44228928 -10.78874871 -3.14094843 0 0 Z " fill="#FE8700" transform="translate(286,17)"/>
<path d="M0 0 C0.81247192 0.00205444 1.62494385 0.00410889 2.46203613 0.00622559 C3.38931519 0.00682983 4.31659424 0.00743408 5.27197266 0.00805664 C6.29440063 0.01454224 7.31682861 0.02102783 8.37023926 0.02770996 C9.96914001 0.03308777 9.96914001 0.03308777 11.6003418 0.03857422 C24.95252366 0.1035378 38.30193421 0.36340551 51.65148926 0.62145996 C54.24002712 0.66984081 56.82856879 0.71801892 59.41711426 0.76599121 C65.66196225 0.88178443 71.9067112 1.00169709 78.15148926 1.12145996 C78.15148926 13.00145996 78.15148926 24.88145996 78.15148926 37.12145996 C51.42148926 37.12145996 24.69148926 37.12145996 -2.84851074 37.12145996 C-2.84851074 0.18716689 -2.84851074 0.18716689 0 0 Z " fill="#D8B72B" transform="translate(92.8485107421875,458.8785400390625)"/>
<path d="M0 0 C0.66 0 1.32 0 2 0 C3.33819498 2.6226232 4.6707151 5.24786599 6 7.875 C6.57234375 8.99455078 6.57234375 8.99455078 7.15625 10.13671875 C7.69765625 11.20986328 7.69765625 11.20986328 8.25 12.3046875 C8.58515625 12.96452637 8.9203125 13.62436523 9.265625 14.30419922 C10 16 10 16 10 18 C16.93 18.99 23.86 19.98 31 21 C28.69951113 25.60097773 25.62033983 28.36186102 21.8125 31.66992188 C19.02220067 34.27936847 18.0387446 35.65965524 17.6015625 39.5 C17.95509742 42.60556167 18.37125585 45.62673854 19 48.6875 C19.66847998 51.96955099 20 54.61255211 20 58 C14.56088521 56.33827343 9.87014977 53.87458681 4.90234375 51.14453125 C1.53494508 49.81660688 0.37631708 49.80713836 -3 51 C-5.23830531 52.12999191 -7.44568675 53.32254591 -9.625 54.5625 C-15.67002012 58 -15.67002012 58 -19 58 C-18.83580566 57.43716309 -18.67161133 56.87432617 -18.50244141 56.29443359 C-15.24010132 45.37699893 -15.24010132 45.37699893 -17.23193359 34.66357422 C-20.51412016 30.5658313 -24.43832705 27.26807851 -28.66723633 24.17895508 C-29.10704834 23.7898999 -29.54686035 23.40084473 -30 23 C-30 22.34 -30 21.68 -30 21 C-29.16021606 20.88724731 -29.16021606 20.88724731 -28.3034668 20.7722168 C-25.76282987 20.42364657 -23.2253474 20.05580854 -20.6875 19.6875 C-19.80642578 19.56955078 -18.92535156 19.45160156 -18.01757812 19.33007812 C-17.17001953 19.20439453 -16.32246094 19.07871094 -15.44921875 18.94921875 C-14.27879028 18.78425903 -14.27879028 18.78425903 -13.0847168 18.6159668 C-9.95506876 17.69125641 -8.6210717 15.99233237 -6.92504883 13.2824707 C-6.60560303 12.66976318 -6.28615723 12.05705566 -5.95703125 11.42578125 C-5.43012695 10.42514648 -5.43012695 10.42514648 -4.89257812 9.40429688 C-4.53615234 8.71400391 -4.17972656 8.02371094 -3.8125 7.3125 C-3.26045898 6.2596582 -3.26045898 6.2596582 -2.69726562 5.18554688 C-1.7932106 3.45962365 -0.89593399 1.73015281 0 0 Z " fill="#FFDB00" transform="translate(281,44)"/>
<path d="M0 0 C2.3125 0.8125 2.3125 0.8125 4.3125 2.8125 C4.21594628 6.23731742 3.5841651 7.53787666 1.16015625 9.98828125 C0.24105469 10.69339844 -0.67804688 11.39851563 -1.625 12.125 C-2.63046875 12.91390625 -3.6359375 13.7028125 -4.671875 14.515625 C-6.47011507 15.88526899 -8.27119066 17.25122174 -10.078125 18.609375 C-20.26534115 26.44036429 -30.28899 35.79416428 -37.8125 46.25 C-39.9496923 49.18934059 -40.41423401 49.71453672 -44 51 C-46.6875 50.8125 -46.6875 50.8125 -48.6875 48.8125 C-49.1753209 45.13587088 -49.01912 43.34246482 -47.03515625 40.171875 C-46.28105469 39.31078125 -45.52695313 38.4496875 -44.75 37.5625 C-43.92757812 36.61375 -43.10515625 35.665 -42.2578125 34.6875 C-41.40960938 33.73875 -40.56140625 32.79 -39.6875 31.8125 C-38.92179688 30.925625 -38.15609375 30.03875 -37.3671875 29.125 C-32.79597438 23.90075644 -28.06216797 19.19822906 -22.6875 14.8125 C-22.11628418 14.34489258 -21.54506836 13.87728516 -20.95654297 13.39550781 C-18.97594201 11.77834287 -16.98936471 10.16887001 -15 8.5625 C-14.03682861 7.78253662 -14.03682861 7.78253662 -13.05419922 6.98681641 C-3.97247168 -0.27714919 -3.97247168 -0.27714919 0 0 Z " fill="#EDF4F6" transform="translate(177.6875,293.1875)"/>
<path d="M0 0 C3.3 0.33 6.6 0.66 10 1 C10 11.89 10 22.78 10 34 C7.69 33.67 5.38 33.34 3 33 C1.515 33.495 1.515 33.495 0 34 C0 22.78 0 11.56 0 0 Z " fill="#AFB4C8" transform="translate(251,157)"/>
<path d="M0 0 C2 2 2 2 2.4375 4.4375 C2.2209375 5.7059375 2.2209375 5.7059375 2 7 C-1.31304216 9.26401092 -4.86994119 10.98973373 -8.5 12.6875 C-9.4178125 13.12449219 -10.335625 13.56148438 -11.28125 14.01171875 C-14.10634221 15.03865601 -16.02376458 15.35164425 -19 15 C-21 13 -21 13 -21.125 9.875 C-21.08375 8.92625 -21.0425 7.9775 -21 7 C-18.44560598 5.62825139 -15.88335569 4.27774592 -13.3125 2.9375 C-12.59126953 2.54755859 -11.87003906 2.15761719 -11.12695312 1.75585938 C-4.2867577 -1.77355653 -4.2867577 -1.77355653 0 0 Z " fill="#EBF4F5" transform="translate(209,279)"/>
<path d="M0 0 C0.66 0.33 1.32 0.66 2 1 C-5.92 8.92 -13.84 16.84 -22 25 C-22 21.47049413 -21.54599546 21.14054753 -19.21875 18.671875 C-18.62723145 18.03967041 -18.03571289 17.40746582 -17.42626953 16.75610352 C-16.79060059 16.09408936 -16.15493164 15.4320752 -15.5 14.75 C-14.86304199 14.07702881 -14.22608398 13.40405762 -13.56982422 12.71069336 C-9.26951367 8.20875453 -4.87193673 3.88847124 0 0 Z " fill="#099743" transform="translate(139,294)"/>
</svg>
