<svg xmlns="http://www.w3.org/2000/svg" viewBox="0 0 512 512">
  <rect width="512" height="512" fill="#2e7d32" rx="100"/>
  <path fill="#ffffff" d="M256,96c-88.366,0-160,71.634-160,160c0,88.366,71.634,160,160,160c88.366,0,160-71.634,160-160C416,167.634,344.366,96,256,96z M256,384c-70.692,0-128-57.308-128-128s57.308-128,128-128c31.114,0,59.58,11.23,81.764,29.877c-21.724-19.167-50.601-30.877-81.764-30.877c-65.17,0-118,52.83-118,118s52.83,118,118,118c31.163,0,60.04-11.71,81.764-30.877C315.58,372.77,287.114,384,256,384z"/>
</svg>
